<?xml version="1.0" encoding="UTF-8" standalone="no"?>
<svg
   xmlns:dc="http://purl.org/dc/elements/1.1/"
   xmlns:cc="http://creativecommons.org/ns#"
   xmlns:rdf="http://www.w3.org/1999/02/22-rdf-syntax-ns#"
   xmlns:svg="http://www.w3.org/2000/svg"
   xmlns="http://www.w3.org/2000/svg"
   xmlns:sodipodi="http://sodipodi.sourceforge.net/DTD/sodipodi-0.dtd"
   xmlns:inkscape="http://www.inkscape.org/namespaces/inkscape"
   x="0px"
   y="0px"
   width="96"
   height="96"
   viewBox="0 0 96 96"
   preserveAspectRatio="xMidYMid meet"
   version="1.1"
   id="svg873"
   sodipodi:docname="dialog-information.svg"
   inkscape:version="0.92.5 (2060ec1f9f, 2020-04-08)"
   inkscape:export-filename="/home/oboisot/Documents/GitHub/GeoTiffDEMViewer/qss/dark/icons/48x48/document-open.png"
   inkscape:export-xdpi="7.6799998"
   inkscape:export-ydpi="7.6799998">
  <metadata
     id="metadata879">
    <rdf:RDF>
      <cc:Work
         rdf:about="">
        <dc:format>image/svg+xml</dc:format>
        <dc:type
           rdf:resource="http://purl.org/dc/dcmitype/StillImage" />
        <dc:title></dc:title>
      </cc:Work>
    </rdf:RDF>
  </metadata>
  <defs
     id="defs877" />
  <sodipodi:namedview
     pagecolor="#ffffff"
     bordercolor="#666666"
     borderopacity="1"
     objecttolerance="10"
     gridtolerance="10"
     guidetolerance="10"
     inkscape:pageopacity="0"
     inkscape:pageshadow="2"
     inkscape:window-width="1848"
     inkscape:window-height="1016"
     id="namedview875"
     showgrid="false"
     inkscape:zoom="6.5839487"
     inkscape:cx="42.058296"
     inkscape:cy="47.685339"
     inkscape:window-x="1920"
     inkscape:window-y="27"
     inkscape:window-maximized="1"
     inkscape:current-layer="svg873"
     inkscape:snap-object-midpoints="true" />
  <path
     id="path1500"
     d="m 48.000005,34.84888 c 2.420925,0 4.383493,-1.962563 4.383493,-4.383495 0,-2.420923 -1.962568,-4.383495 -4.383493,-4.383495 -2.420926,0 -4.383494,1.962572 -4.383494,4.383495 0,2.420932 1.962568,4.383495 4.383494,4.383495 z m 5.667152,32.482088 c -0.53443,-0.693611 -1.283659,-3.705867 -1.283659,-6.179849 V 39.232375 l -13.174133,-0.0029 v 1.402565 c 1.516994,0.09078 2.543027,0.483294 3.07682,1.176265 0.533153,0.694251 1.467131,1.800824 1.330326,6.191351 V 61.15078 c 0,2.473342 -0.754341,5.426147 -1.20375,5.998937 -0.70256,0.875163 -1.770146,1.327772 -3.203396,1.357177 v 1.357817 H 56.82836 v -1.357827 c -1.57389,-0.0901 -2.62741,-0.482004 -3.161203,-1.175615 z M 74.301603,4.1637856 H 21.698405 c -9.68434,0 -17.5346117,7.8502694 -17.5346117,17.5339794 v 52.603839 c 0,9.68433 7.8502717,17.53461 17.5346117,17.53461 h 52.603198 c 9.68434,0 17.534604,-7.85028 17.534604,-17.53461 V 21.697765 c 0,-9.68371 -7.850263,-17.5339794 -17.534604,-17.5339794 z m 8.767625,65.7543134 c 0,7.262797 -5.887705,13.150475 -13.150486,13.150475 H 26.081898 c -7.263415,0 -13.151118,-5.888318 -13.151118,-13.150475 V 26.08189 c 0,-7.262777 5.887703,-13.151115 13.151118,-13.151115 h 43.836204 c 7.262782,0 13.150493,5.887698 13.150493,13.151115 v 43.836209 z"
     style="fill:#d28140;fill-opacity:1;stroke:#d28140;stroke-width:2.32758641;stroke-miterlimit:4;stroke-dasharray:none;stroke-opacity:1"
     inkscape:connector-curvature="0" />
</svg>
