<?xml version="1.0" encoding="UTF-8" standalone="no"?>
<svg
   xmlns:dc="http://purl.org/dc/elements/1.1/"
   xmlns:cc="http://creativecommons.org/ns#"
   xmlns:rdf="http://www.w3.org/1999/02/22-rdf-syntax-ns#"
   xmlns:svg="http://www.w3.org/2000/svg"
   xmlns="http://www.w3.org/2000/svg"
   xmlns:sodipodi="http://sodipodi.sourceforge.net/DTD/sodipodi-0.dtd"
   xmlns:inkscape="http://www.inkscape.org/namespaces/inkscape"
   x="0px"
   y="0px"
   width="96"
   height="96"
   viewBox="0 0 96 96"
   preserveAspectRatio="xMidYMid meet"
   version="1.1"
   id="svg873"
   sodipodi:docname="dialog-information.svg"
   inkscape:version="0.92.5 (2060ec1f9f, 2020-04-08)"
   inkscape:export-filename="/home/oboisot/Documents/GitHub/GeoTiffDEMViewer/qss/dark/icons/48x48/document-open.png"
   inkscape:export-xdpi="7.6799998"
   inkscape:export-ydpi="7.6799998">
  <metadata
     id="metadata879">
    <rdf:RDF>
      <cc:Work
         rdf:about="">
        <dc:format>image/svg+xml</dc:format>
        <dc:type
           rdf:resource="http://purl.org/dc/dcmitype/StillImage" />
        <dc:title></dc:title>
      </cc:Work>
    </rdf:RDF>
  </metadata>
  <defs
     id="defs877" />
  <sodipodi:namedview
     pagecolor="#ffffff"
     bordercolor="#666666"
     borderopacity="1"
     objecttolerance="10"
     gridtolerance="10"
     guidetolerance="10"
     inkscape:pageopacity="0"
     inkscape:pageshadow="2"
     inkscape:window-width="1848"
     inkscape:window-height="1016"
     id="namedview875"
     showgrid="false"
     inkscape:zoom="3.9008457"
     inkscape:cx="11.687412"
     inkscape:cy="49.202311"
     inkscape:window-x="1920"
     inkscape:window-y="27"
     inkscape:window-maximized="1"
     inkscape:current-layer="svg873"
     inkscape:snap-object-midpoints="true"
     inkscape:pagecheckerboard="false" />
  <path
     id="path1500-3"
     d="M 73.199896,5.9999678 H 22.800112 c -9.278689,0 -16.8001389,7.5214432 -16.8001389,16.7995282 v 50.400401 c 0,9.278684 7.5214499,16.800135 16.8001389,16.800135 h 50.399784 c 9.278692,0 16.800131,-7.521451 16.800131,-16.800135 V 22.799496 c 0,-9.278085 -7.521439,-16.7995282 -16.800131,-16.7995282 z"
     style="fill:#ffffff;fill-opacity:1;stroke:#d28140;stroke-width:11.99993515;stroke-miterlimit:4;stroke-dasharray:none;stroke-opacity:1"
     inkscape:connector-curvature="0"
     sodipodi:nodetypes="sssssssss" />
  <path
     id="path1500"
     d="m 48.000005,33.972175 c 2.582314,0 4.675714,-2.093395 4.675714,-4.675716 0,-2.582311 -2.0934,-4.675716 -4.675714,-4.675716 -2.582314,0 -4.675714,2.093405 -4.675714,4.675716 0,2.582321 2.0934,4.675716 4.675714,4.675716 z m 6.044947,34.647471 c -0.570057,-0.73985 -1.369233,-3.952915 -1.369233,-6.591822 V 38.647891 l -14.052372,-0.0031 v 1.496066 c 1.618123,0.09683 2.712555,0.515512 3.281933,1.254679 0.568695,0.740533 1.564935,1.920874 1.419011,6.604091 v 14.027829 c 0,2.638225 -0.804629,5.787875 -1.283997,6.39885 -0.749396,0.933504 -1.888151,1.416286 -3.416947,1.447651 v 1.448335 H 57.416893 V 69.873947 C 55.738081,69.777837 54.61433,69.35981 54.044952,68.619961 Z"
     style="fill:#d28140;fill-opacity:1;stroke:#d28140;stroke-width:2.48275232;stroke-miterlimit:4;stroke-dasharray:none;stroke-opacity:1"
     inkscape:connector-curvature="0"
     sodipodi:nodetypes="ssssscscccccsccccccc" />
</svg>
