<?xml version="1.0" encoding="UTF-8" standalone="no"?>
<svg
   xmlns:dc="http://purl.org/dc/elements/1.1/"
   xmlns:cc="http://creativecommons.org/ns#"
   xmlns:rdf="http://www.w3.org/1999/02/22-rdf-syntax-ns#"
   xmlns:svg="http://www.w3.org/2000/svg"
   xmlns="http://www.w3.org/2000/svg"
   xmlns:sodipodi="http://sodipodi.sourceforge.net/DTD/sodipodi-0.dtd"
   xmlns:inkscape="http://www.inkscape.org/namespaces/inkscape"
   x="0px"
   y="0px"
   width="96"
   height="96"
   viewBox="0 0 96 96"
   preserveAspectRatio="xMidYMid meet"
   version="1.1"
   id="svg872"
   sodipodi:docname="document-save-as.svg"
   inkscape:version="0.92.5 (2060ec1f9f, 2020-04-08)">
  <metadata
     id="metadata878">
    <rdf:RDF>
      <cc:Work
         rdf:about="">
        <dc:format>image/svg+xml</dc:format>
        <dc:type
           rdf:resource="http://purl.org/dc/dcmitype/StillImage" />
        <dc:title></dc:title>
      </cc:Work>
    </rdf:RDF>
  </metadata>
  <defs
     id="defs876" />
  <sodipodi:namedview
     pagecolor="#ffffff"
     bordercolor="#666666"
     borderopacity="1"
     objecttolerance="10"
     gridtolerance="10"
     guidetolerance="10"
     inkscape:pageopacity="0"
     inkscape:pageshadow="2"
     inkscape:window-width="1848"
     inkscape:window-height="1016"
     id="namedview874"
     showgrid="false"
     inkscape:zoom="4"
     inkscape:cx="43.308465"
     inkscape:cy="44.395787"
     inkscape:window-x="1920"
     inkscape:window-y="27"
     inkscape:window-maximized="1"
     inkscape:current-layer="svg872"
     showguides="true"
     inkscape:guide-bbox="true" />
  <g
     id="g1557"
     transform="matrix(1.0666667,0,0,1.0666667,-3.2000017,-3.2000011)">
    <path
       sodipodi:nodetypes="scsscsscssccccss"
       inkscape:connector-curvature="0"
       id="path862"
       d="m 10.814134,4.250261 c -1.6805129,0 -3.3616813,0.641703 -4.6408886,1.922821 C 4.8898337,7.4542 4.2500971,9.134253 4.2500971,10.812663 v 74.374674 c 0,1.680511 0.6399278,3.360478 1.9231483,4.641214 1.2792073,1.281309 2.9602402,1.921187 4.6405616,1.921187 h 74.372387 c 1.680325,0 3.361674,-0.639871 4.640887,-1.921187 1.283223,-1.280733 1.922822,-2.960705 1.922822,-4.641214 V 25.529594 c 0,-0.837007 -0.158287,-1.688498 -0.498822,-2.511745 -0.342448,-0.821337 -0.829112,-1.535436 -1.424,-2.127835 L 75.110151,6.172755 C 74.517175,5.579779 73.803574,5.091253 72.981662,4.750716 72.15784,4.410753 71.306925,4.250261 70.469917,4.250261 Z"
       style="fill:#d28140;fill-opacity:1;stroke:#d28140;stroke-width:2.50019407;stroke-miterlimit:4;stroke-dasharray:none;stroke-opacity:1" />
    <rect
       rx="0.91763717"
       ry="0.91763717"
       y="9.2851114"
       x="26.867079"
       height="19.063147"
       width="42.244793"
       id="rect1502"
       style="fill:#ffffff;fill-opacity:1;stroke:none;stroke-width:1.18086135;stroke-linecap:round;stroke-linejoin:round;stroke-miterlimit:4;stroke-dasharray:none;stroke-dashoffset:0;stroke-opacity:1;paint-order:normal" />
    <rect
       id="rect860"
       x="60.090542"
       y="12.345349"
       width="5.598268"
       height="12.942671"
       style="fill:#d28140;fill-opacity:1;stroke:#d28140;stroke-width:2.50019407;stroke-miterlimit:4;stroke-dasharray:none;stroke-opacity:1" />
    <rect
       rx="2.2035451"
       ry="2.203125"
       y="52.336155"
       x="21.154648"
       height="34.430256"
       width="61.472542"
       id="rect1502-6"
       style="fill:#ffffff;fill-opacity:1;stroke:none;stroke-width:1.91436923;stroke-linecap:round;stroke-linejoin:round;stroke-miterlimit:4;stroke-dasharray:none;stroke-dashoffset:0;stroke-opacity:1;paint-order:normal" />
    <path
       inkscape:connector-curvature="0"
       id="path864"
       d="m 74.047376,58.967678 c 0.703532,3.33e-4 1.276349,0.491658 1.276349,1.090796 0,0.600472 -0.572817,1.092322 -1.276349,1.092322 H 29.734462 c -0.703532,0 -1.276349,-0.49185 -1.276349,-1.092322 0,-0.599138 0.572817,-1.090463 1.276349,-1.090796 z"
       style="fill:#d28140;fill-opacity:1;stroke:#d28140;stroke-width:1.25009704;stroke-miterlimit:4;stroke-dasharray:none;stroke-opacity:1" />
    <path
       inkscape:connector-curvature="0"
       id="path866"
       d="m 74.047376,67.785817 c 0.703532,3.33e-4 1.276349,0.491658 1.276349,1.090796 0,0.600472 -0.572817,1.092322 -1.276349,1.092322 H 29.734462 c -0.703532,0 -1.276349,-0.49185 -1.276349,-1.092322 0,-0.599138 0.572817,-1.090463 1.276349,-1.090796 z"
       style="fill:#d28140;fill-opacity:1;stroke:#d28140;stroke-width:1.25009704;stroke-miterlimit:4;stroke-dasharray:none;stroke-opacity:1" />
    <path
       inkscape:connector-curvature="0"
       id="path868"
       d="m 74.047376,76.60396 c 0.703532,3.33e-4 1.276349,0.491658 1.276349,1.090796 0,0.600471 -0.572817,1.092321 -1.276349,1.092321 H 29.734462 c -0.703532,0 -1.276349,-0.49185 -1.276349,-1.092321 0,-0.599138 0.572817,-1.090463 1.276349,-1.090796 z"
       style="fill:#d28140;fill-opacity:1;stroke:#d28140;stroke-width:1.25009704;stroke-miterlimit:4;stroke-dasharray:none;stroke-opacity:1" />
    <circle
       r="1.6328125"
       cy="85.354637"
       cx="10.646178"
       id="path1536"
       style="fill:#fffff1;fill-opacity:1;stroke:none;stroke-width:1.67937851;stroke-linecap:round;stroke-linejoin:round;stroke-miterlimit:4;stroke-dasharray:none;stroke-dashoffset:0;stroke-opacity:1;paint-order:normal" />
  </g>
</svg>
