<?xml version="1.0" encoding="UTF-8" standalone="no"?>
<svg
   xmlns:dc="http://purl.org/dc/elements/1.1/"
   xmlns:cc="http://creativecommons.org/ns#"
   xmlns:rdf="http://www.w3.org/1999/02/22-rdf-syntax-ns#"
   xmlns:svg="http://www.w3.org/2000/svg"
   xmlns="http://www.w3.org/2000/svg"
   xmlns:sodipodi="http://sodipodi.sourceforge.net/DTD/sodipodi-0.dtd"
   xmlns:inkscape="http://www.inkscape.org/namespaces/inkscape"
   x="0px"
   y="0px"
   width="96"
   height="96"
   viewBox="0 0 96 96"
   preserveAspectRatio="xMidYMid meet"
   version="1.1"
   id="svg873"
   sodipodi:docname="document-save-as.svg"
   inkscape:version="0.92.5 (2060ec1f9f, 2020-04-08)"
   inkscape:export-filename="/home/oboisot/Documents/GitHub/GeoTiffDEMViewer/qss/dark/icons/48x48/document-open.png"
   inkscape:export-xdpi="7.6799998"
   inkscape:export-ydpi="7.6799998">
  <metadata
     id="metadata879">
    <rdf:RDF>
      <cc:Work
         rdf:about="">
        <dc:format>image/svg+xml</dc:format>
        <dc:type
           rdf:resource="http://purl.org/dc/dcmitype/StillImage" />
        <dc:title></dc:title>
      </cc:Work>
    </rdf:RDF>
  </metadata>
  <defs
     id="defs877" />
  <sodipodi:namedview
     pagecolor="#ffffff"
     bordercolor="#666666"
     borderopacity="1"
     objecttolerance="10"
     gridtolerance="10"
     guidetolerance="10"
     inkscape:pageopacity="0"
     inkscape:pageshadow="2"
     inkscape:window-width="1848"
     inkscape:window-height="1016"
     id="namedview875"
     showgrid="false"
     inkscape:zoom="0.98759247"
     inkscape:cx="253.53531"
     inkscape:cy="303.97914"
     inkscape:window-x="1920"
     inkscape:window-y="27"
     inkscape:window-maximized="1"
     inkscape:current-layer="svg873"
     inkscape:snap-object-midpoints="true" />
  <g
     id="g873"
     transform="matrix(0.14310668,0,0,0.14310668,5.4307939,4.923091)">
    <path
       sodipodi:nodetypes="cccccccscc"
       inkscape:connector-curvature="0"
       id="path869"
       d="m 64.622847,26.865593 c -20.490584,0 -37.254721,22.080204 -37.254721,49.068596 V 526.09094 c 0,26.98709 16.764137,49.0686 37.254721,49.0686 l 465.683003,-10e-4 c 20.48961,0 37.25473,-22.08151 37.25473,-49.06859 -9.8e-4,-117.33942 9.8e-4,-332.67152 9.8e-4,-450.010905 v -1.17e-4 c 0,-26.988393 -16.76512,-49.068637 -37.25473,-49.068637 C 375.07846,27.119237 219.851,26.865593 64.622847,26.865593 Z"
       style="fill:#d28140;fill-opacity:1;stroke:none;stroke-width:34.73763657;stroke-miterlimit:4;stroke-dasharray:none;stroke-opacity:1" />
    <path
       sodipodi:nodetypes="cccccccscc"
       inkscape:connector-curvature="0"
       id="path869-3"
       d="m 147.04387,87.900623 c -13.34661,0 -24.26598,12.823897 -24.26598,28.498407 v 261.44523 c 0,15.67375 10.91937,28.49841 24.26598,28.49841 l 303.32403,-5.8e-4 c 13.34597,0 24.26599,-12.82466 24.26599,-28.4984 -6.4e-4,-68.14923 6.3e-4,-193.21133 6.3e-4,-261.36053 v -7e-5 c 0,-15.67451 -10.92001,-28.498427 -24.26598,-28.498427 -101.10847,0.0633 -202.21635,-0.084 -303.32467,-0.084 z"
       style="fill:#ffffff;fill-opacity:1;stroke:none;stroke-width:21.36569214;stroke-miterlimit:4;stroke-dasharray:none;stroke-opacity:1" />
  </g>
</svg>
