<?xml version="1.0" encoding="UTF-8" standalone="no"?>
<svg
   xmlns:dc="http://purl.org/dc/elements/1.1/"
   xmlns:cc="http://creativecommons.org/ns#"
   xmlns:rdf="http://www.w3.org/1999/02/22-rdf-syntax-ns#"
   xmlns:svg="http://www.w3.org/2000/svg"
   xmlns="http://www.w3.org/2000/svg"
   xmlns:sodipodi="http://sodipodi.sourceforge.net/DTD/sodipodi-0.dtd"
   xmlns:inkscape="http://www.inkscape.org/namespaces/inkscape"
   x="0px"
   y="0px"
   width="96"
   height="96"
   viewBox="0 0 96 96"
   preserveAspectRatio="xMidYMid meet"
   version="1.1"
   id="svg873"
   sodipodi:docname="folder.svg"
   inkscape:version="0.92.5 (2060ec1f9f, 2020-04-08)"
   inkscape:export-filename="/home/oboisot/Documents/GitHub/GeoTiffDEMViewer/qss/dark/icons/48x48/document-open.png"
   inkscape:export-xdpi="7.6799998"
   inkscape:export-ydpi="7.6799998">
  <metadata
     id="metadata879">
    <rdf:RDF>
      <cc:Work
         rdf:about="">
        <dc:format>image/svg+xml</dc:format>
        <dc:type
           rdf:resource="http://purl.org/dc/dcmitype/StillImage" />
        <dc:title></dc:title>
      </cc:Work>
    </rdf:RDF>
  </metadata>
  <defs
     id="defs877" />
  <sodipodi:namedview
     pagecolor="#ffffff"
     bordercolor="#666666"
     borderopacity="1"
     objecttolerance="10"
     gridtolerance="10"
     guidetolerance="10"
     inkscape:pageopacity="0"
     inkscape:pageshadow="2"
     inkscape:window-width="1848"
     inkscape:window-height="1016"
     id="namedview875"
     showgrid="false"
     inkscape:zoom="2.7933333"
     inkscape:cx="153.65936"
     inkscape:cy="72.773722"
     inkscape:window-x="1920"
     inkscape:window-y="27"
     inkscape:window-maximized="1"
     inkscape:current-layer="svg873"
     inkscape:snap-object-midpoints="true" />
  <g
     id="g854"
     transform="matrix(0.16456302,0,0,0.16456302,-1.5788804,-1.4023092)">
    <path
       sodipodi:nodetypes="ssccsccccccs"
       inkscape:connector-curvature="0"
       id="path869"
       d="m 495.0007,171.18516 c 0,-23.13464 -14.58729,-41.91456 -32.4139,-42.06198 H 220.73901 L 188.32511,64.999295 H 57.413183 c -17.828064,0 -32.413891,18.927305 -32.413891,42.061945 v 385.87752 c 0,23.13353 14.585827,42.06195 32.413891,42.06195 l 405.172767,-10e-4 c 17.82722,0 32.4139,-18.92843 32.4139,-42.06195 -8.6e-4,-100.58417 8.5e-4,-221.16835 8.5e-4,-321.7525 z"
       style="fill:#ffffff;fill-opacity:1;stroke:#d28140;stroke-width:29.99858475;stroke-miterlimit:4;stroke-dasharray:none;stroke-opacity:1" />
    <path
       sodipodi:nodetypes="ccccccccc"
       inkscape:connector-curvature="0"
       id="path869-5"
       d="m 136.92076,204.6951 c -18.30157,0 -37.555472,16.22572 -42.787666,36.0582 L 25.910805,499.34776 c -5.231945,19.83154 5.460369,36.0582 23.761949,36.0582 l 415.934546,-9.4e-4 c 18.30072,0 37.55574,-16.22667 42.78769,-36.05819 22.74752,-86.22717 45.49769,-172.45431 68.2461,-258.68147 5.23221,-19.83245 -5.46123,-36.0582 -23.76195,-36.0582 -138.6347,-0.0392 -277.29414,0.0152 -415.95842,0.088 z"
       style="fill:#d28140;fill-opacity:1;stroke:#d28140;stroke-width:30;stroke-miterlimit:4;stroke-dasharray:none;stroke-opacity:1" />
  </g>
</svg>
